<svg xmlns="http://www.w3.org/2000/svg" viewBox="0 0 364.56 109.5"><defs><style>.cls-1{isolation:isolate;}.cls-2{fill:#231815;}.cls-3{fill:#fff100;}.cls-4,.cls-5{fill:#e60041;}.cls-5{mix-blend-mode:multiply;}</style></defs><title>logo.svg</title><g class="cls-1"><g id="レイヤー_2" data-name="レイヤー 2"><g id="レイヤー_1-2" data-name="レイヤー 1"><path class="cls-2" d="M86.48,97.59a3.37,3.37,0,0,1,0,5,4,4,0,0,1-2.75,1H82.41v3.09H79.82V96.66h3.9A4.07,4.07,0,0,1,86.48,97.59Zm-4.07,1.33v2.34h1.33a1.17,1.17,0,0,0,.87-.32,1.15,1.15,0,0,0,.32-.85,1.13,1.13,0,0,0-.32-.84,1.19,1.19,0,0,0-.87-.32Z"/><path class="cls-2" d="M95.44,100a3.88,3.88,0,0,1,0,5.62,4.29,4.29,0,0,1-5.82,0,3.91,3.91,0,0,1,0-5.62,4.29,4.29,0,0,1,5.82,0Zm-3.95,1.68a1.78,1.78,0,0,0,0,2.27,1.39,1.39,0,0,0,1.05.43,1.36,1.36,0,0,0,1-.44,1.74,1.74,0,0,0,0-2.25,1.35,1.35,0,0,0-1-.44A1.37,1.37,0,0,0,91.5,101.71Z"/><path class="cls-2" d="M110.06,99.07l-3.71,7.72h-.83l-1.91-3.6-1.93,3.6h-.83l-3.71-7.72h2.74l1.55,3.51,1.75-3.69H104l1.79,3.59,1.51-3.41Z"/><path class="cls-2" d="M118,103.74H113.2a1.69,1.69,0,0,0,1.69.86,3.75,3.75,0,0,0,2-.59l.93,1.76a4.86,4.86,0,0,1-3,1,4.26,4.26,0,0,1-3-1.12,3.72,3.72,0,0,1-1.19-2.83,3.78,3.78,0,0,1,1.16-2.81,3.93,3.93,0,0,1,2.86-1.14,3.44,3.44,0,0,1,2.61,1,3.54,3.54,0,0,1,1,2.53A4.82,4.82,0,0,1,118,103.74Zm-4.39-2.52a1.57,1.57,0,0,0-.52.84h2.62a1.07,1.07,0,0,0-.38-.82,1.3,1.3,0,0,0-.87-.31A1.33,1.33,0,0,0,113.63,101.22Z"/><path class="cls-2" d="M124.5,99.07v2.29h-.62a1.88,1.88,0,0,0-1.34.43,1.83,1.83,0,0,0-.45,1.38v3.44H119.5V99.07h2.37v.8a2.3,2.3,0,0,1,1.9-.92A2.15,2.15,0,0,1,124.5,99.07Z"/><path class="cls-2" d="M132.81,103.74H128a1.69,1.69,0,0,0,1.69.86,3.75,3.75,0,0,0,2-.59l.93,1.76a4.86,4.86,0,0,1-3,1,4.26,4.26,0,0,1-3-1.12,3.72,3.72,0,0,1-1.19-2.83,3.78,3.78,0,0,1,1.16-2.81,3.93,3.93,0,0,1,2.86-1.14,3.44,3.44,0,0,1,2.61,1,3.54,3.54,0,0,1,1,2.53A4.82,4.82,0,0,1,132.81,103.74Zm-4.39-2.52a1.57,1.57,0,0,0-.52.84h2.62a1.07,1.07,0,0,0-.38-.82,1.3,1.3,0,0,0-.87-.31A1.33,1.33,0,0,0,128.42,101.22Z"/><path class="cls-2" d="M142.05,95.3v11.3h-2.37v-.78a2.5,2.5,0,0,1-2.15,1,3.38,3.38,0,0,1-2.6-1.1,4,4,0,0,1-1-2.83,4.06,4.06,0,0,1,1-2.85,3.36,3.36,0,0,1,2.6-1.12,2.7,2.7,0,0,1,1.93.69V95.3Zm-3,8.72a1.54,1.54,0,0,0,.43-1.18,1.59,1.59,0,0,0-.43-1.19,1.42,1.42,0,0,0-1-.42,1.45,1.45,0,0,0-1,.42,1.81,1.81,0,0,0,0,2.35,1.51,1.51,0,0,0,2.08,0Z"/><path class="cls-2" d="M155.08,100a4.06,4.06,0,0,1,1,2.85,4,4,0,0,1-1,2.83,3.38,3.38,0,0,1-2.6,1.1,2.5,2.5,0,0,1-2.16-1v.78H148V95.3h2.59v4.28a2.7,2.7,0,0,1,1.93-.69A3.36,3.36,0,0,1,155.08,100ZM153,104a1.81,1.81,0,0,0,0-2.35,1.45,1.45,0,0,0-1-.42,1.42,1.42,0,0,0-1,.42,1.59,1.59,0,0,0-.43,1.19,1.54,1.54,0,0,0,.43,1.18,1.51,1.51,0,0,0,2.08,0Z"/><path class="cls-2" d="M165.16,99.07,161.62,107a4.82,4.82,0,0,1-1.35,1.88,3.06,3.06,0,0,1-1.94.6,6.19,6.19,0,0,1-1.45-.18v-2.17l.87,0a2,2,0,0,0,.88-.17,1.37,1.37,0,0,0,.6-.72l.12-.26-2.76-7h2.76l1.45,4.23,1.61-4.23Z"/><path class="cls-2" d="M181.46,99.72a3.14,3.14,0,0,1,.78,2.24v4.64h-2.59v-4.26a1.09,1.09,0,0,0-.3-.82,1.06,1.06,0,0,0-.77-.29,1,1,0,0,0-.75.29,1.13,1.13,0,0,0-.29.82v4.26H175v-4.26a1.09,1.09,0,0,0-.3-.82,1.06,1.06,0,0,0-.77-.29,1,1,0,0,0-.75.29,1.13,1.13,0,0,0-.29.82v4.26h-2.59V99.07h2.37v.59a2.89,2.89,0,0,1,2.06-.77,2.66,2.66,0,0,1,2.18,1,3.28,3.28,0,0,1,2.47-1A2.77,2.77,0,0,1,181.46,99.72Z"/><path class="cls-2" d="M189.69,99.75a3.24,3.24,0,0,1,.92,2.49v4.37h-2.37V106a3,3,0,0,1-2.17.8,2.61,2.61,0,0,1-1.91-.67,2.23,2.23,0,0,1-.69-1.67,2,2,0,0,1,.79-1.65,3.52,3.52,0,0,1,2.16-.6H188v-.12a.92.92,0,0,0-.28-.7,1.23,1.23,0,0,0-.87-.26,2,2,0,0,0-.93.22,5.09,5.09,0,0,0-1,.7l-1.21-1.64a4.64,4.64,0,0,1,3.41-1.51A3.52,3.52,0,0,1,189.69,99.75Zm-2,4.9a1,1,0,0,0,.32-.81v-.06H186.8q-.69,0-.69.57t.77.59A1.18,1.18,0,0,0,187.7,104.65Z"/><path class="cls-2" d="M203.45,99.72a3.14,3.14,0,0,1,.78,2.24v4.64h-2.59v-4.26a1.09,1.09,0,0,0-.3-.82,1.06,1.06,0,0,0-.77-.29,1,1,0,0,0-.75.29,1.13,1.13,0,0,0-.29.82v4.26h-2.59v-4.26a1.09,1.09,0,0,0-.3-.82,1.06,1.06,0,0,0-.77-.29,1,1,0,0,0-.75.29,1.13,1.13,0,0,0-.29.82v4.26h-2.59V99.07h2.37v.59a2.89,2.89,0,0,1,2.06-.77,2.66,2.66,0,0,1,2.18,1,3.28,3.28,0,0,1,2.47-1A2.77,2.77,0,0,1,203.45,99.72Z"/><path class="cls-2" d="M211.69,99.75a3.24,3.24,0,0,1,.92,2.49v4.37h-2.37V106a3,3,0,0,1-2.17.8,2.61,2.61,0,0,1-1.91-.67,2.23,2.23,0,0,1-.69-1.67,2,2,0,0,1,.79-1.65,3.52,3.52,0,0,1,2.16-.6H210v-.12a.92.92,0,0,0-.28-.7,1.23,1.23,0,0,0-.87-.26,2,2,0,0,0-.93.22,5.09,5.09,0,0,0-1,.7l-1.21-1.64a4.64,4.64,0,0,1,3.41-1.51A3.52,3.52,0,0,1,211.69,99.75Zm-2,4.9a1,1,0,0,0,.32-.81v-.06h-1.22q-.69,0-.69.57t.77.59A1.18,1.18,0,0,0,209.69,104.65Z"/><path class="cls-2" d="M222,99.07v6.62a3.57,3.57,0,0,1-1.1,2.87,4.36,4.36,0,0,1-2.94.94,5.68,5.68,0,0,1-3.8-1.36l1.31-1.82a3.68,3.68,0,0,0,2.22.86,2.14,2.14,0,0,0,1.23-.33,1.12,1.12,0,0,0,.49-1v-.27a2.7,2.7,0,0,1-2,.69,3.47,3.47,0,0,1-2.57-1,3.66,3.66,0,0,1-1-2.7,3.59,3.59,0,0,1,1-2.68,3.5,3.5,0,0,1,2.56-1,2.57,2.57,0,0,1,2.2.95v-.77Zm-3,4.63a1.6,1.6,0,0,0,.43-1.18,1.4,1.4,0,0,0-.43-1.12,1.53,1.53,0,0,0-1-.37,1.5,1.5,0,0,0-1,.39,1.43,1.43,0,0,0-.43,1.11,1.56,1.56,0,0,0,.44,1.17,1.43,1.43,0,0,0,1,.43A1.41,1.41,0,0,0,219,103.7Z"/><path class="cls-2" d="M226.1,95.31a1.45,1.45,0,0,1,.47,1.09,1.43,1.43,0,0,1-.47,1.08,1.66,1.66,0,0,1-2.25,0,1.44,1.44,0,0,1-.46-1.09,1.46,1.46,0,0,1,.46-1.09,1.56,1.56,0,0,1,1.12-.44A1.58,1.58,0,0,1,226.1,95.31Zm.18,11.29h-2.59V99.07h2.59Z"/><path class="cls-2" d="M233,99.07v2.29h-.62a1.88,1.88,0,0,0-1.34.43,1.83,1.83,0,0,0-.45,1.38v3.44H228V99.07h2.37v.8a2.3,2.3,0,0,1,1.9-.92A2.15,2.15,0,0,1,233,99.07Z"/><path class="cls-2" d="M236.66,106.6h-2.59V95.3h2.59Z"/><polygon class="cls-3" points="348.32 4.09 347.93 17.38 358.65 25.23 345.89 28.96 341.73 41.59 334.24 30.6 320.95 30.55 329.08 20.03 325.03 7.38 337.54 11.86 348.32 4.09"/><path class="cls-3" d="M348.32,4.09l-.4,13.28,10.72,7.86L345.89,29l-4.16,12.62-7.48-11L321,30.55,329.08,20,325,7.38l12.51,4.48,10.78-7.77m0-4.09a4.09,4.09,0,0,0-2.39.77l-9,6.51L326.41,3.52a4.09,4.09,0,0,0-5.28,5.1l3.39,10.61L317.71,28a4.09,4.09,0,0,0,3.22,6.6l11.14,0,6.27,9.2a4.1,4.1,0,0,0,3.38,1.79,4.17,4.17,0,0,0,.57,0,4.09,4.09,0,0,0,3.32-2.77l3.49-10.58,10.69-3.13a4.09,4.09,0,0,0,1.27-7.23l-9-6.58.33-11.13A4.1,4.1,0,0,0,348.32,0Z"/><polygon class="cls-3" points="305.99 31.88 309.88 34.06 313.89 32.09 313.01 36.47 316.13 39.67 311.69 40.2 309.61 44.15 307.74 40.09 303.34 39.33 306.62 36.3 305.99 31.88"/><path class="cls-3" d="M306,31.88l3.9,2.18,4-2L313,36.47l3.11,3.2-4.44.52-2.09,3.95-1.86-4.06-4.4-.76,3.28-3L306,31.88M306,29a2.86,2.86,0,0,0-2.84,3.27l.42,2.93-2.17,2a2.87,2.87,0,0,0,1.45,4.93l2.92.51L307,45.34A2.87,2.87,0,0,0,309.53,47h.08a2.87,2.87,0,0,0,2.53-1.53l1.38-2.62,2.94-.35a2.87,2.87,0,0,0,1.72-4.85l-2.06-2.12.58-2.9a2.87,2.87,0,0,0-4.08-3.13L310,30.83l-2.58-1.45A2.86,2.86,0,0,0,306,29Z"/><polygon class="cls-2" points="362.05 45.42 330.89 37.66 295.61 50.23 327.87 66.84 362.05 45.42"/><path class="cls-2" d="M327.87,68.89a2,2,0,0,1-.94-.23L294.67,52.05a2,2,0,0,1,.25-3.75L330.2,35.73a2.06,2.06,0,0,1,1.18-.06l31.17,7.76a2,2,0,0,1,.59,3.72L329,68.58a2,2,0,0,1-1.09.31ZM300.74,50.57l27,13.92,29.12-18.25L331,39.79,300.74,50.57Z"/><polygon class="cls-4" points="293.84 53.88 303.95 93.6 329.95 106.6 358.84 84.69 360.28 49.06 326.1 70.49 293.84 53.88"/><path class="cls-4" d="M329.95,108.65a2,2,0,0,1-.92-.22l-26-13A2,2,0,0,1,302,94.11L291.85,54.38a2,2,0,0,1,2.92-2.32L326,68.14l33.2-20.81a2,2,0,0,1,3.13,1.82l-1.44,35.63a2,2,0,0,1-.81,1.55l-28.89,21.91a2.06,2.06,0,0,1-1.24.42ZM305.7,92.19l24,12,27.11-20.56,1.25-30.79-30.9,19.36a2.05,2.05,0,0,1-2,.09L296.94,57.78l8.76,34.41Z"/><polygon class="cls-3" points="350.14 6.44 349.74 19.72 360.46 27.58 347.7 31.31 343.54 43.93 336.05 32.95 322.77 32.9 330.9 22.38 326.84 9.72 339.35 14.21 350.14 6.44"/><path class="cls-2" d="M350.14,6.44l-.4,13.28,10.72,7.86-12.76,3.73-4.16,12.62-7.49-11-13.29-.05,8.13-10.52L326.84,9.72l12.51,4.48,10.78-7.77m0-4.1a4.1,4.1,0,0,0-2.4.77l-9,6.51L328.22,5.87a4.09,4.09,0,0,0-5.28,5.1l3.4,10.61-6.81,8.81a4.1,4.1,0,0,0,3.22,6.6l11.13,0,6.28,9.2a4.09,4.09,0,0,0,7.27-1l3.49-10.58,10.69-3.13a4.09,4.09,0,0,0,1.27-7.23l-9-6.58.33-11.13a4.09,4.09,0,0,0-4.09-4.22Z"/><polygon class="cls-3" points="306.85 33.15 310.74 35.33 314.75 33.36 313.88 37.74 316.99 40.94 312.55 41.47 310.47 45.41 308.6 41.36 304.2 40.6 307.48 37.57 306.85 33.15"/><path class="cls-2" d="M306.84,33.15l3.9,2.18,4-2-.87,4.38,3.11,3.2-4.43.52-2.08,3.95-1.87-4.05-4.4-.76,3.28-3-.64-4.42m0-2.87A2.87,2.87,0,0,0,304,33.56l.42,2.93-2.17,2a2.87,2.87,0,0,0,1.46,4.93l2.91.51,1.24,2.69a2.87,2.87,0,0,0,2.53,1.67h.08A2.86,2.86,0,0,0,313,46.75l1.38-2.62,2.94-.35A2.87,2.87,0,0,0,319,38.94L317,36.82l.58-2.9a2.86,2.86,0,0,0-4.08-3.13l-2.65,1.3-2.58-1.45a2.89,2.89,0,0,0-1.4-.37Z"/><path class="cls-2" d="M330,86.95a2,2,0,0,1-2-1.8l-2.17-18.06a2,2,0,0,1,4.07-.49l2.17,18.06a2,2,0,0,1-1.79,2.28Z"/><path class="cls-3" d="M327.84,68.08A1.84,1.84,0,0,1,326,66.39a66,66,0,0,1,3.19-24.09,1.84,1.84,0,1,1,3.49,1.19,63.38,63.38,0,0,0-3,22.6,1.85,1.85,0,0,1-1.69,2Z"/><path class="cls-3" d="M321.74,56.38h-.13a1.84,1.84,0,0,1-1.71-2,52,52,0,0,1,1.28-8.65,1.84,1.84,0,0,1,3.57.93,49.2,49.2,0,0,0-1.17,8,1.84,1.84,0,0,1-1.84,1.71Z"/><path class="cls-3" d="M334.85,57h-.09A1.84,1.84,0,0,1,333,55.08a29.32,29.32,0,0,1,2.11-9.69,1.84,1.84,0,0,1,3.37,1.5h0a26,26,0,0,0-1.8,8.37A1.84,1.84,0,0,1,334.85,57Z"/><path class="cls-2" d="M331.72,105a2.05,2.05,0,0,1-.92-.22l-26-13a2,2,0,0,1-1.07-1.33L293.62,50.74a2,2,0,0,1,2.92-2.32l31.23,16.08L361,43.68a2,2,0,0,1,3.13,1.82l-1.44,35.63a2,2,0,0,1-.81,1.55L333,104.59a2.05,2.05,0,0,1-1.24.41ZM307.47,88.54l24,12L358.6,80l1.25-30.79L329,68.58a2,2,0,0,1-2,.09L298.71,54.13l8.76,34.41Z"/><path class="cls-2" d="M24.2,86,9.84,67.19V86H0V48.25H9.84V65.36L22.32,48.25H33.76l-13,18L35.88,86Z"/><path class="cls-2" d="M77.54,57.41v8.7H75.19a7.14,7.14,0,0,0-5.09,1.63Q68.38,69.36,68.38,73V86H58.54V57.41h9v3a8.74,8.74,0,0,1,7.21-3.49A8.15,8.15,0,0,1,77.54,57.41Z"/><path class="cls-2" d="M103.46,60Q107,63.24,107,69.42V86H98V83.67a11.5,11.5,0,0,1-8.24,3,9.91,9.91,0,0,1-7.24-2.55,8.48,8.48,0,0,1-2.6-6.32,7.4,7.4,0,0,1,3-6.27q3-2.26,8.21-2.26h6v-.46a3.49,3.49,0,0,0-1.06-2.66,4.66,4.66,0,0,0-3.29-1,7.43,7.43,0,0,0-3.52.83,19.32,19.32,0,0,0-3.63,2.66L81,62.44A17.6,17.6,0,0,1,94,56.72Q100,56.72,103.46,60ZM97.11,75.32H92.47q-2.63,0-2.63,2.17t2.92,2.23a4.46,4.46,0,0,0,3.12-1.12"/><path class="cls-2" d="M131.79,57.41v8.7h-2.35a7.13,7.13,0,0,0-5.09,1.63q-1.72,1.63-1.72,5.24V86h-9.84V57.41h9v3A8.74,8.74,0,0,1,129,56.95,8.15,8.15,0,0,1,131.79,57.41Z"/><path class="cls-2" d="M157.71,60q3.49,3.26,3.49,9.44V86h-9V83.67a11.5,11.5,0,0,1-8.24,3,9.91,9.91,0,0,1-7.24-2.55,8.48,8.48,0,0,1-2.6-6.32,7.4,7.4,0,0,1,3-6.27q3-2.26,8.21-2.26h6v-.46a3.49,3.49,0,0,0-1.06-2.66,4.66,4.66,0,0,0-3.29-1,7.42,7.42,0,0,0-3.52.83,19.29,19.29,0,0,0-3.63,2.66l-4.58-6.24a17.6,17.6,0,0,1,12.93-5.72Q154.22,56.72,157.71,60ZM150.13,78.6a3.92,3.92,0,0,0,1.23-3.06v-.23h-4.63q-2.63,0-2.63,2.17T147,79.72A4.46,4.46,0,0,0,150.13,78.6Z"/><path class="cls-2" d="M193.93,51.8A11.83,11.83,0,0,1,198,61.24a11.93,11.93,0,0,1-4.15,9.41,15.28,15.28,0,0,1-10.44,3.63h-5V86h-9.84V48.25h14.82A15.47,15.47,0,0,1,193.93,51.8Zm-15.45,5V65.7h5a4.44,4.44,0,0,0,3.29-1.23A4.36,4.36,0,0,0,188,61.24a4.27,4.27,0,0,0-1.23-3.2,4.5,4.5,0,0,0-3.29-1.2Z"/><path class="cls-2" d="M225.92,61a14.73,14.73,0,0,1,0,21.34,16.27,16.27,0,0,1-22.09,0,14.85,14.85,0,0,1,0-21.34,16.27,16.27,0,0,1,22.09,0Zm-15,6.38a6.78,6.78,0,0,0,0,8.61,5.27,5.27,0,0,0,4,1.63A5.18,5.18,0,0,0,218.85,76a6.6,6.6,0,0,0,0-8.55,5.13,5.13,0,0,0-3.92-1.69A5.23,5.23,0,0,0,210.93,67.42Z"/><path class="cls-2" d="M256.25,60.9l-4.64,6a9.33,9.33,0,0,0-6.06-2.46q-2,0-2,1.09a1,1,0,0,0,.23.63,1.64,1.64,0,0,0,.6.46c.25.11.62.27,1.12.46l2.86,1.14a19.92,19.92,0,0,1,6.32,3.66,7,7,0,0,1,2,5.32,8.29,8.29,0,0,1-3.32,7,13.6,13.6,0,0,1-8.53,2.55q-8.12,0-12.3-5.49l4.58-5.84a11.2,11.2,0,0,0,7.9,3.55q2.52,0,2.52-1.26,0-.74-1.66-1.43l-3.2-1.32a18.66,18.66,0,0,1-6.27-3.78,7.41,7.41,0,0,1-2-5.44,8,8,0,0,1,3-6.64,12.62,12.62,0,0,1,8.07-2.4A14.23,14.23,0,0,1,256.25,60.9Z"/><path class="cls-2" d="M282.34,77.78V86a24.67,24.67,0,0,1-5.78.69q-6.07,0-9.33-2.92T264,75.09V65.64h-4.35V57.41H264V50.54h9.84v6.87h7.67v8.24h-7.67v8.47A3.46,3.46,0,0,0,274.93,77a6.4,6.4,0,0,0,3.81.86Q279.25,77.89,282.34,77.78Z"/><path class="cls-2" d="M50.41,86H40.57V57.41h9.84Z"/><polygon class="cls-5" points="45.46 37.35 48.3 43.1 54.66 44.03 50.06 48.51 51.15 54.83 45.46 51.85 39.78 54.83 40.87 48.51 36.27 44.03 42.62 43.1 45.46 37.35"/></g></g></g></svg>